<?xml version="1.0" standalone="no"?>
<!-- Generator: Adobe Fireworks 10, Export SVG Extension by Aaron Beall (http://fireworks.abeall.com) . Version: 0.6.1  -->
<!DOCTYPE svg PUBLIC "-//W3C//DTD SVG 1.1//EN" "http://www.w3.org/Graphics/SVG/1.1/DTD/svg11.dtd">
<svg id="Untitled-Page%201" viewBox="0 0 286 214" style="background-color:#ffffff00" version="1.1"
	xmlns="http://www.w3.org/2000/svg" xmlns:xlink="http://www.w3.org/1999/xlink" xml:space="preserve"
	x="0px" y="0px" width="286px" height="214px"
>
	<g id="Layer%201">
		<g>
			<g>
				<path d="M 11 101 C 11 101 21 166 4 194 C -13 222 79 215 80 196 C 81 177 36 126 41 97 C 46 68 -10 76 11 101 Z" stroke="#512800" stroke-width="2" fill="#8c4600"/>
				<path id="Ellipse" d="M 8 89.5 C 8 83.7009 14.2303 81 25 81 C 35.7697 81 38 83.2009 38 89 C 38 94.7991 34.7697 97 24 97 C 13.2303 97 8 95.2991 8 89.5 Z" stroke="#512800" stroke-width="2" fill="#ffcb97"/>
				<path id="Ellipse2" d="M 40.5 57 C 46.2991 57 49 63.2303 49 74 C 49 84.7697 46.7991 87 41 87 C 35.2009 87 33 83.7697 33 73 C 33 62.2303 34.7009 57 40.5 57 Z" stroke="#512800" stroke-width="2" fill="#ffcb97"/>
				<path d="M 36.3333 57.6667 C 36.3333 57.6667 51 73 39 88 C 39 88 96 107 118 107 C 140 107 123 70 123 70 C 123 70 131.3334 58.6667 36.3333 57.6667 Z" stroke="#512800" stroke-width="2" fill="#8c4600"/>
				<path id="Ellipse3" d="M 108 138 C 108 110.9377 129.2661 89 155.5 89 C 181.7339 89 203 110.9377 203 138 C 203 165.0623 181.7339 187 155.5 187 C 129.2661 187 108 165.0623 108 138 Z" fill="#1a6600"/>
				<path id="Ellipse4" d="M 119 87 C 119 54.4148 146.9818 28 181.5 28 C 216.0182 28 244 54.4148 244 87 C 244 119.5852 216.0182 146 181.5 146 C 146.9818 146 119 119.5852 119 87 Z" fill="#1a6600"/>
				<path id="Ellipse5" d="M 156 129.5 C 156 97.7432 179.9524 72 209.5 72 C 239.0476 72 263 97.7432 263 129.5 C 263 161.2568 239.0476 187 209.5 187 C 179.9524 187 156 161.2568 156 129.5 Z" fill="#1a6600"/>
				<path id="Ellipse6" d="M 108 74.5 C 108 56.5505 123.222 42 142 42 C 160.778 42 176 56.5505 176 74.5 C 176 92.4495 160.778 107 142 107 C 123.222 107 108 92.4495 108 74.5 Z" fill="#1a6600"/>
				<path id="Ellipse7" d="M 231 82 C 231 63.2221 243.312 48 258.5 48 C 273.688 48 286 63.2221 286 82 C 286 100.7779 273.688 116 258.5 116 C 243.312 116 231 100.7779 231 82 Z" fill="#1a6600"/>
				<path id="Ellipse8" d="M 176 53.5 C 176 23.9524 192.5652 0 213 0 C 233.4348 0 250 23.9524 250 53.5 C 250 83.0476 233.4348 107 213 107 C 192.5652 107 176 83.0476 176 53.5 Z" fill="#1a6600"/>
				<path d="M 20 131 C 20 131 17.6667 192.3333 12 196 C 6.3333 199.6667 22 199 22 199 C 22 199 29.6667 140.3333 20 131 Z" fill="#592d00"/>
				<path d="M 115 98.3333 C 115 98.3333 48.6667 87.3333 45 81.6667 C 41.3333 76 43 85 43 85 C 43 85 105.6666 108 115 98.3333 Z" fill="#592d00"/>
				<path d="M 35 112 C 35 112 56.3333 172.3333 66 175 C 75.6666 177.6667 75.6666 193 73 197 C 70.3333 201 75.6666 184.3333 60 177 C 44.3333 169.6667 35 112 35 112 Z" stroke="#ffffff00" stroke-width="1" fill="#6c3600"/>
			</g>
			<path d="M 187 30 C 187 30 221 -31 245 50 C 245 50 222 -12 187 30 Z" fill="#238c00"/>
			<path d="M 179 153.9678 C 179 153.9678 145 214.9678 121 133.9678 C 121 133.9678 144 195.9678 179 153.9678 Z" fill="#238c00"/>
		</g>
	</g>
</svg>